<!-- Bash -->
<svg width="40" height="40" viewBox="0 0 24 24" fill="none" xmlns="http://www.w3.org/2000/svg">
  <path d="M4 4h16v16H4V4zm2 2v12h12V6H6zm3 3h2v2h-2V9zm0 3h2v2h-2v-2zm4-3h2v2h-2V9zm0 3h2v2h-2v-2z" fill="#f5e0dc"/>
</svg>

<!-- Java -->
<svg width="40" height="40" viewBox="0 0 24 24" fill="none" xmlns="http://www.w3.org/2000/svg">
  <path d="M12 3c-4.97 0-9 4.03-9 9s4.03 9 9 9 9-4.03 9-9-4.03-9-9-9zm0 2c3.86 0 7 3.14 7 7s-3.14 7-7 7-7-3.14-7-7 3.14-7 7-7zm0 2c-2.76 0-5 2.24-5 5s2.24 5 5 5 5-2.24 5-5-2.24-5-5-5zm0 2c1.66 0 3 1.34 3 3s-1.34 3-3 3-3-1.34-3-3 1.34-3 3-3z" fill="#f2cdcd"/>
</svg>

<!-- Linux -->
<svg width="40" height="40" viewBox="0 0 24 24" fill="none" xmlns="http://www.w3.org/2000/svg">
  <path d="M12 3c-4.97 0-9 4.03-9 9s4.03 9 9 9 9-4.03 9-9-4.03-9-9-9zm0 2c3.86 0 7 3.14 7 7s-3.14 7-7 7-7-3.14-7-7 3.14-7 7-7zm-2 4h4v2h-4V9zm-1 4h6v2H9v-2z" fill="#f5c2e7"/>
</svg>

<!-- Hyprland -->
<svg width="40" height="40" viewBox="0 0 24 24" fill="none" xmlns="http://www.w3.org/2000/svg">
  <path d="M4 4h16v16H4V4zm2 2v12h12V6H6zm4 4h4v4h-4v-4z" fill="#cba6f7"/>
</svg>

<!-- C++ -->
<svg width="40" height="40" viewBox="0 0 24 24" fill="none" xmlns="http://www.w3.org/2000/svg">
  <path d="M12 3c-4.97 0-9 4.03-9 9s4.03 9 9 9 9-4.03 9-9-4.03-9-9-9zm0 2c3.86 0 7 3.14 7 7s-3.14 7-7 7-7-3.14-7-7 3.14-7 7-7zm2 4h2v2h-2v2h2v2h-2v2h-2v-2h-2v2h-2v-2h-2v-2h2v-2h-2V9h2v2h2V9h2v2h2V9z" fill="#89b4fa"/>
</svg>

<!-- C -->
<svg width="40" height="40" viewBox="0 0 24 24" fill="none" xmlns="http://www.w3.org/2000/svg">
  <path d="M12 3c-4.97 0-9 4.03-9 9s4.03 9 9 9 9-4.03 9-9-4.03-9-9-9zm0 2c3.86 0 7 3.14 7 7s-3.14 7-7 7-7-3.14-7-7 3.14-7 7-7zm2 4h2v2h-2v2h2v2h-2v2h-2v-2h-2v2h-2v-2h-2v-2h2v-2h-2V9h2v2h2V9h2v2h2V9z" fill="#6c7086"/>
</svg>

<!-- CSS -->
<svg width="40" height="40" viewBox="0 0 24 24" fill="none" xmlns="http://www.w3.org/2000/svg">
  <path d="M5 3l1.5 15L12 21l5.5-3L19 3H5zm1.5 2h11L16 17l-4 2-4-2L6.5 5z" fill="#b4befe"/>
</svg>

<!-- JSONC -->
<svg width="40" height="40" viewBox="0 0 24 24" fill="none" xmlns="http://www.w3.org/2000/svg">
  <path d="M4 4h16v16H4V4zm2 2v12h12V6H6zm2 2h8v2H8V8zm0 3h8v2H8v-2zm0 3h8v2H8v-2z" fill="#fab387"/>
</svg>
