<svg width="450" height="160" viewBox="0 0 450 160" fill="none" xmlns="http://www.w3.org/2000/svg" role="img" aria-label="GitHub Stats">
  <rect width="450" height="160" rx="15" fill="#1e1e2e"/>
  
  <text x="25" y="35" fill="#cba6f7" font-family="Segoe UI, monospace" font-size="22" font-weight="600">Languages</text>

  <!-- Barra para Python -->
  <text x="25" y="70" fill="#cdd6f4" font-family="Segoe UI, monospace" font-size="14">Python</text>
  <rect x="120" y="58" width="270" height="14" rx="7" fill="#cdd6f4" opacity="0.15"/>
  <rect x="120" y="58" width="220" height="14" rx="7" fill="#f5c2e7"/>

  <!-- Barra para C -->
  <text x="25" y="100" fill="#cdd6f4" font-family="Segoe UI, monospace" font-size="14">C</text>
  <rect x="120" y="88" width="270" height="14" rx="7" fill="#cdd6f4" opacity="0.15"/>
  <rect x="120" y="88" width="140" height="14" rx="7" fill="#89b4fa"/>

  <!-- Barra para Bash -->
  <text x="25" y="130" fill="#cdd6f4" font-family="Segoe UI, monospace" font-size="14">Bash</text>
  <rect x="120" y="118" width="270" height="14" rx="7" fill="#cdd6f4" opacity="0.15"/>
  <rect x="120" y="118" width="80" height="14" rx="7" fill="#cba6f7"/>
  
</svg><svg width="450" height="160" viewBox="0 0 450 160" fill="none" xmlns="http://www.w3.org/2000/svg" role="img" aria-label="GitHub Stats">
  <rect width="450" height="160" rx="15" fill="#1e1e2e"/>
  
  <text x="25" y="35" fill="#cba6f7" font-family="Segoe UI, monospace" font-size="22" font-weight="600">Languages</text>

  <!-- Barra para Python -->
  <text x="25" y="70" fill="#cdd6f4" font-family="Segoe UI, monospace" font-size="14">Python</text>
  <rect x="120" y="58" width="270" height="14" rx="7" fill="#cdd6f4" opacity="0.15"/>
  <rect x="120" y="58" width="220" height="14" rx="7" fill="#f5c2e7"/>

  <!-- Barra para C -->
  <text x="25" y="100" fill="#cdd6f4" font-family="Segoe UI, monospace" font-size="14">C</text>
  <rect x="120" y="88" width="270" height="14" rx="7" fill="#cdd6f4" opacity="0.15"/>
  <rect x="120" y="88" width="140" height="14" rx="7" fill="#89b4fa"/>

  <!-- Barra para Bash -->
  <text x="25" y="130" fill="#cdd6f4" font-family="Segoe UI, monospace" font-size="14">Bash</text>
  <rect x="120" y="118" width="270" height="14" rx="7" fill="#cdd6f4" opacity="0.15"/>
  <rect x="120" y="118" width="80" height="14" rx="7" fill="#cba6f7"/>
  
</svg>
