<svg clip-rule="evenodd" fill-rule="evenodd" stroke-linejoin="round" stroke-miterlimit="2" viewBox="0 0 64 64" xmlns="http://www.w3.org/2000/svg">
  <rect x="10" y="10" width="44" height="44" rx="12" fill="#181926" transform="matrix(2.88315 0 0 3.85264 -30.3444 -55.1209)"/>
  <path d="M32 20c-6.627 0-12 5.373-12 12s5.373 12 12 12 12-5.373 12-12-5.373-12-12-12zm0 20c-4.418 0-8-3.582-8-8s3.582-8 8-8 8 3.582 8 8-3.582 8-8 8zm12-14.5c1.381 0 2.5-1.119 2.5-2.5s-1.119-2.5-2.5-2.5-2.5 1.119-2.5 2.5 1.119 2.5 2.5 2.5zm-4.686-6.5h-15.628c-2.209 0-4 1.791-4 4v15.628c0 2.209 1.791 4 4 4h15.628c2.209 0 4-1.791 4-4v-15.628c0-2.209-1.791-4-4-4z" fill="#cad3f5" transform="matrix(1.12573 0 0 1.12573 -4.00035 -2.95049)"/>
</svg>
