<svg clip-rule="evenodd" fill-rule="evenodd" stroke-linejoin="round" stroke-miterlimit="2" viewBox="0 0 64 64" xmlns="http://www.w3.org/2000/svg">
  <ellipse cx="21.624" cy="22.613" fill="#181926" rx="11.099" ry="8.306" transform="matrix(2.88315 0 0 3.85264 -30.3444 -55.1209)"/>
  <path d="M32 21.5c-5.523 0-10 4.477-10 10s4.477 10 10 10 10-4.477 10-10-4.477-10-10-10zm0 16c-3.314 0-6-2.686-6-6s2.686-6 6-6 6 2.686 6 6-2.686 6-6 6zm10.5-12.5c1.105 0 2-.895 2-2s-.895-2-2-2-2 .895-2 2 .895 2 2 2zm-3.686-8h-13.628c-1.657 0-3 1.343-3 3v13.628c0 1.657 1.343 3 3 3h13.628c1.657 0 3-1.343 3-3v-13.628c0-1.657-1.343-3-3-3z" fill="#cad3f5" transform="matrix(1.12573 0 0 1.12573 -4.00035 -2.95049)"/>
</svg>
