<svg clip-rule="evenodd" fill-rule="evenodd" stroke-linejoin="round" stroke-miterlimit="2" viewBox="0 0 64 64" xmlns="http://www.w3.org/2000/svg">
  <ellipse cx="32" cy="32" rx="30" ry="30" fill="#181926"/>
  <path d="M44.7 41.5c-0.6 0.9-1.7 1.2-2.6 0.6-7-4.2-15.8-5.1-26.2-2.7-1 .2-2-.4-2.2-1.4s.4-2 1.4-2.2c11-2.6 20.3-1.6 28.2 3 0.9.6 1.2 1.7.6 2.7zm3.8-7c-0.7 1-2 1.3-2.9.6-8.1-4.8-20.5-6.1-30.1-3.3-1.1.3-2.3-.3-2.6-1.4s.3-2.3 1.4-2.6c10-2.8 23-1.5 32 3.6 1 .7 1.3 2 .6 2.9zm0.1-7.3c-9.2-5.3-24.4-5.8-33.6-3.2-1.2.3-2.4-.3-2.7-1.5s.3-2.4 1.5-2.7c10.2-2.6 26.3-2.1 36.3 3.5 1.1.6 1.5 2 .9 3.1-0.6 1.1-2 1.5-3.1.8z" fill="#cad3f5"/>
</svg>